<mxfile host="app.diagrams.net" agent="Mozilla/5.0 (Windows NT 10.0; Win64; x64; rv:130.0) Gecko/20100101 Firefox/130.0" version="24.7.16">
  <diagram name="Page-1" id="SsAnqpzIa4O2QgqAaoVw">
    <mxGraphModel dx="1185" dy="632" grid="1" gridSize="10" guides="1" tooltips="1" connect="1" arrows="1" fold="1" page="1" pageScale="1" pageWidth="850" pageHeight="1100" math="0" shadow="0">
      <root>
        <mxCell id="0" />
        <mxCell id="1" parent="0" />
        <mxCell id="w_ax9IdIKcX7a9nXQSyE-2" value="IGDB API" style="aspect=fixed;sketch=0;html=1;dashed=0;whitespace=wrap;verticalLabelPosition=bottom;verticalAlign=top;fillColor=#2875E2;strokeColor=#ffffff;points=[[0.005,0.63,0],[0.1,0.2,0],[0.9,0.2,0],[0.5,0,0],[0.995,0.63,0],[0.72,0.99,0],[0.5,1,0],[0.28,0.99,0]];shape=mxgraph.kubernetes.icon2;prIcon=api" vertex="1" parent="1">
          <mxGeometry x="70" y="50" width="50" height="48" as="geometry" />
        </mxCell>
        <mxCell id="w_ax9IdIKcX7a9nXQSyE-3" value="Steam Web API" style="aspect=fixed;sketch=0;html=1;dashed=0;whitespace=wrap;verticalLabelPosition=bottom;verticalAlign=top;fillColor=#2875E2;strokeColor=#ffffff;points=[[0.005,0.63,0],[0.1,0.2,0],[0.9,0.2,0],[0.5,0,0],[0.995,0.63,0],[0.72,0.99,0],[0.5,1,0],[0.28,0.99,0]];shape=mxgraph.kubernetes.icon2;prIcon=api" vertex="1" parent="1">
          <mxGeometry x="70" y="190" width="50" height="48" as="geometry" />
        </mxCell>
        <mxCell id="w_ax9IdIKcX7a9nXQSyE-7" value="Data Ingestion Service" style="rounded=1;arcSize=5;fillColor=#0065FF;strokeColor=none;fontColor=#ffffff;align=center;verticalAlign=middle;whiteSpace=wrap;fontSize=14;fontStyle=1;html=1;sketch=0;" vertex="1" parent="1">
          <mxGeometry x="210" y="90" width="110" height="100" as="geometry" />
        </mxCell>
        <mxCell id="w_ax9IdIKcX7a9nXQSyE-8" value="Kafka" style="strokeWidth=2;html=1;shape=mxgraph.flowchart.direct_data;whiteSpace=wrap;" vertex="1" parent="1">
          <mxGeometry x="420" y="110" width="130" height="60" as="geometry" />
        </mxCell>
        <mxCell id="w_ax9IdIKcX7a9nXQSyE-9" value="Master Data Service" style="rounded=1;arcSize=5;fillColor=#0065FF;strokeColor=none;fontColor=#ffffff;align=center;verticalAlign=middle;whiteSpace=wrap;fontSize=14;fontStyle=1;html=1;sketch=0;" vertex="1" parent="1">
          <mxGeometry x="324.8" y="270" width="110" height="100" as="geometry" />
        </mxCell>
        <mxCell id="w_ax9IdIKcX7a9nXQSyE-19" style="edgeStyle=orthogonalEdgeStyle;rounded=0;orthogonalLoop=1;jettySize=auto;html=1;" edge="1" parent="1" source="w_ax9IdIKcX7a9nXQSyE-10" target="w_ax9IdIKcX7a9nXQSyE-8">
          <mxGeometry relative="1" as="geometry" />
        </mxCell>
        <mxCell id="w_ax9IdIKcX7a9nXQSyE-10" value="Analytics Data Service" style="rounded=1;arcSize=5;fillColor=#0065FF;strokeColor=none;fontColor=#ffffff;align=center;verticalAlign=middle;whiteSpace=wrap;fontSize=14;fontStyle=1;html=1;sketch=0;" vertex="1" parent="1">
          <mxGeometry x="500" y="270" width="110" height="100" as="geometry" />
        </mxCell>
        <mxCell id="w_ax9IdIKcX7a9nXQSyE-20" style="edgeStyle=orthogonalEdgeStyle;rounded=0;orthogonalLoop=1;jettySize=auto;html=1;" edge="1" parent="1" source="w_ax9IdIKcX7a9nXQSyE-11" target="w_ax9IdIKcX7a9nXQSyE-9">
          <mxGeometry relative="1" as="geometry" />
        </mxCell>
        <mxCell id="w_ax9IdIKcX7a9nXQSyE-21" style="edgeStyle=orthogonalEdgeStyle;rounded=0;orthogonalLoop=1;jettySize=auto;html=1;" edge="1" parent="1" source="w_ax9IdIKcX7a9nXQSyE-11" target="w_ax9IdIKcX7a9nXQSyE-10">
          <mxGeometry relative="1" as="geometry" />
        </mxCell>
        <mxCell id="w_ax9IdIKcX7a9nXQSyE-11" value="User Interface Service" style="shadow=0;dashed=0;html=1;strokeColor=none;fillColor=#4495D1;labelPosition=center;verticalLabelPosition=bottom;verticalAlign=top;align=center;outlineConnect=0;shape=mxgraph.veeam.2d.web_ui;" vertex="1" parent="1">
          <mxGeometry x="400" y="470" width="140" height="100" as="geometry" />
        </mxCell>
        <mxCell id="w_ax9IdIKcX7a9nXQSyE-13" style="edgeStyle=orthogonalEdgeStyle;rounded=0;orthogonalLoop=1;jettySize=auto;html=1;entryX=0.995;entryY=0.63;entryDx=0;entryDy=0;entryPerimeter=0;" edge="1" parent="1" source="w_ax9IdIKcX7a9nXQSyE-7" target="w_ax9IdIKcX7a9nXQSyE-2">
          <mxGeometry relative="1" as="geometry" />
        </mxCell>
        <mxCell id="w_ax9IdIKcX7a9nXQSyE-14" style="edgeStyle=orthogonalEdgeStyle;rounded=0;orthogonalLoop=1;jettySize=auto;html=1;entryX=0.995;entryY=0.63;entryDx=0;entryDy=0;entryPerimeter=0;" edge="1" parent="1" source="w_ax9IdIKcX7a9nXQSyE-7" target="w_ax9IdIKcX7a9nXQSyE-3">
          <mxGeometry relative="1" as="geometry">
            <mxPoint x="130" y="217" as="targetPoint" />
          </mxGeometry>
        </mxCell>
        <mxCell id="w_ax9IdIKcX7a9nXQSyE-15" style="edgeStyle=orthogonalEdgeStyle;rounded=0;orthogonalLoop=1;jettySize=auto;html=1;entryX=0;entryY=0.5;entryDx=0;entryDy=0;entryPerimeter=0;" edge="1" parent="1" source="w_ax9IdIKcX7a9nXQSyE-7" target="w_ax9IdIKcX7a9nXQSyE-8">
          <mxGeometry relative="1" as="geometry" />
        </mxCell>
        <mxCell id="w_ax9IdIKcX7a9nXQSyE-18" style="edgeStyle=orthogonalEdgeStyle;rounded=0;orthogonalLoop=1;jettySize=auto;html=1;entryX=0.142;entryY=0.967;entryDx=0;entryDy=0;entryPerimeter=0;" edge="1" parent="1" source="w_ax9IdIKcX7a9nXQSyE-9" target="w_ax9IdIKcX7a9nXQSyE-8">
          <mxGeometry relative="1" as="geometry" />
        </mxCell>
        <mxCell id="w_ax9IdIKcX7a9nXQSyE-23" style="edgeStyle=orthogonalEdgeStyle;rounded=0;orthogonalLoop=1;jettySize=auto;html=1;" edge="1" parent="1" source="w_ax9IdIKcX7a9nXQSyE-22" target="w_ax9IdIKcX7a9nXQSyE-11">
          <mxGeometry relative="1" as="geometry" />
        </mxCell>
        <mxCell id="w_ax9IdIKcX7a9nXQSyE-22" value="Actor" style="shape=umlActor;verticalLabelPosition=bottom;verticalAlign=top;html=1;outlineConnect=0;" vertex="1" parent="1">
          <mxGeometry x="670" y="490" width="30" height="60" as="geometry" />
        </mxCell>
      </root>
    </mxGraphModel>
  </diagram>
</mxfile>
